<?xml version="1.0" standalone="no"?><!DOCTYPE svg PUBLIC "-//W3C//DTD SVG 1.1//EN" "http://www.w3.org/Graphics/SVG/1.1/DTD/svg11.dtd"><svg width="100%" height="100%" viewBox="0 0 96 96" version="1.1" xmlns="http://www.w3.org/2000/svg" xmlns:xlink="http://www.w3.org/1999/xlink" xml:space="preserve" style="fill-rule:evenodd;clip-rule:evenodd;stroke-linejoin:round;stroke-miterlimit:1.41421;"><g id="fry_3"><g><path d="M3.04,40.767l6.353,-3.781l68.402,-3.572l12.174,3.725l-0.241,5.482l-79.878,4.935l-6.81,-6.789Z" style="fill:#e3b54a;"/><path d="M90.171,37.69l-12.22,-1.443l-74.898,4.375l-0.621,6.919l7.58,0.681l79.709,-5.514l0.45,-5.018Z" style="fill:#c6982c;"/></g></g><g id="fry_2"><g><path d="M89.864,35.582l-82.995,13.378l-6.242,4.444l7.777,7.214l86.984,-17.45l-5.524,-7.586Z" style="fill:#d8ab3b;"/><path d="M8.143,52.55l81.857,-16.976l-83.285,13.377l-6.093,4.372l7.521,-0.773Z" style="fill:#c6982c;"/><path d="M89.761,35.589l3.989,1.982l1.64,5.635l-5.629,-7.617Z" style="fill:#e2be69;"/></g></g><g id="fry_1"><g><path d="M11.016,43.192l69.266,-2.146l3.859,9.85l-72.693,1.137l-2.704,-7.96l2.272,-0.881Z" style="fill:#d8ab3b;"/><path d="M84.861,42.499l2.846,9.645l-3.567,-1.245l-3.858,-9.853l4.579,1.453Z" style="fill:#e2c06f;"/><path d="M87.707,52.144l-2.409,0.938l-75.229,0.475l1.418,-1.514l71.578,-1.914l4.642,2.015Z" style="fill:#c6982c;"/><path d="M10.069,53.557l-2.703,-7.466l1.379,-2.024l2.824,7.998l-1.5,1.492Z" style="fill:#d2a12e;"/></g></g></svg>