<?xml version="1.0" standalone="no"?><!DOCTYPE svg PUBLIC "-//W3C//DTD SVG 1.1//EN" "http://www.w3.org/Graphics/SVG/1.1/DTD/svg11.dtd"><svg width="100%" height="100%" viewBox="0 0 298 65" version="1.1" xmlns="http://www.w3.org/2000/svg" xmlns:xlink="http://www.w3.org/1999/xlink" xml:space="preserve" style="fill-rule:evenodd;clip-rule:evenodd;stroke-linejoin:round;stroke-miterlimit:1.41421;"><path id="snacky_s" d="M31.521,9.746c-3.921,2.719 -7.455,-3.838 -10.305,-6.062c-9.881,0.813 -14.9,6.644 -16.367,14.548c8.96,5.79 20.817,8.684 23.035,21.216c-3.162,6.132 -8.566,10.023 -15.761,12.124c-4.716,-1.749 -10.389,-2.542 -11.517,-7.88c4.239,-4.008 4.644,3.407 8.487,4.243c5.438,1.182 12.908,-5.164 13.335,-9.093c1.263,-11.589 -15.47,-13.332 -22.428,-18.791c1.495,-9.463 8.663,-23.214 21.822,-19.398c3.922,1.137 6.901,6.265 9.699,9.093" style="fill:#231f20;"/><path id="snacky_y" d="M297.026,1.865c-3.429,10.955 -16.338,15.538 -17.579,26.672c-0.772,0.845 -2.969,0.264 -3.031,1.819c0.924,9.121 5.492,15.434 4.849,23.034c-2.141,-0.283 -3.319,-1.531 -4.849,-2.424c-0.528,-10.105 -3.114,-14.453 -4.85,-23.035c-6.197,-4.31 -12.027,-8.987 -13.942,-17.579c2.571,-1.819 5.225,0.586 6.668,1.818c-0.977,5.818 5.127,9.282 8.487,12.73c7.021,-7.729 14.314,-15.186 20.003,-24.247c2.212,-0.393 3.229,0.409 4.244,1.212" style="fill:#231f20;"/><path id="snacky_a" d="M126.084,24.294c3.103,0.476 4.404,-0.85 7.274,-0.606c-1.12,-2.72 -0.933,-6.745 -3.637,-7.88c-0.671,3.37 -3.033,5.048 -3.637,8.486M132.752,9.746c0.276,3.613 3.14,7.577 4.244,12.123c3.709,1.564 12.527,-2.617 12.729,3.637c-2.815,1 -7.475,-0.872 -10.911,0.606c0.639,10.295 6.938,18.088 6.668,27.278c-2.347,0.327 -2.496,-1.545 -4.243,-1.818c-1.325,-9.385 -3.983,-17.436 -7.274,-24.853c-11.682,0.02 -12.727,5.377 -18.792,13.336c-3.948,5.18 -9.428,7.408 -9.092,15.76c-2.176,0.357 -2.933,-0.704 -4.244,-1.212c4.12,-8.813 9.711,-16.153 15.155,-23.641c-1.761,-0.643 -6.834,1.975 -7.274,-2.425c13.16,-0.175 14.489,-12.182 20.61,-19.397c0.539,0.471 1.368,0.651 2.424,0.606" style="fill:#231f20;"/><path id="snacky_c" d="M183.671,9.14c0.796,0.214 0.953,1.067 1.819,1.212c-3.687,5.406 -10.112,8.074 -12.124,15.154c-0.539,0.471 -1.369,0.652 -2.425,0.606c-5.853,18.527 17.234,26.356 27.884,13.336c0.784,1.238 2.939,1.103 2.425,3.637c-3.969,-0.916 -5.243,3.11 -8.486,4.244c-12.416,4.339 -26.823,-2.146 -24.854,-20.004c3.953,-7.362 10.594,-12.038 15.761,-18.185" style="fill:#231f20;"/><path id="snacky_k" d="M235.196,7.927c0.382,6.444 -2.295,9.829 -6.668,11.518c-0.248,1.46 1.107,1.317 0.606,3.03c-5.331,-0.077 -4.285,6.222 -9.093,6.668c7.559,8.213 22.807,11.934 26.066,22.429c-9.935,-6.635 -19.137,-14.001 -29.703,-20.004c-1.565,1.897 -0.94,3.591 0,5.456c-2.415,1.538 -0.372,11.153 -1.818,15.154c-5.932,-6.079 2.282,-17.271 -2.425,-24.247c0.897,-0.316 1.528,-0.897 2.425,-1.212c0.225,-11.528 1.829,-16.009 2.425,-26.066c3.121,0.415 0.482,3.039 2.424,4.85c-1.28,2.551 -3.695,7.182 -1.212,9.092c-1.655,3.327 -1.5,9.376 -1.819,10.911c6.745,1.593 9.968,-7.437 16.973,-10.305c-0.188,-2.914 -0.574,-6.48 1.819,-7.274" style="fill:#231f20;"/><g id="snacky_n"><path d="M82.44,11.564c-0.341,2.306 -1.667,3.988 -0.606,6.062c-1.294,0.283 -1.155,-0.866 -1.213,-1.818c-0.098,-0.711 -1.105,-0.511 -1.818,-0.607c0.456,-1.968 1.005,-3.843 3.637,-3.637" style="fill:#231f20;"/><path d="M50.919,29.75c2.67,0.469 0.234,5.179 -1.213,5.455c-0.179,1.594 2.352,0.477 1.819,2.425c-3.784,1.266 -3.875,6.77 -2.425,10.305c-2.774,2.615 -3.582,10.83 -0.606,13.942c-1.9,-0.284 -1.709,1.524 -2.425,2.425c-1.866,0.451 -1.165,-1.664 -3.031,-1.213c0.915,-13.842 5.28,-23.553 7.881,-33.339" style="fill:#231f20;"/><path d="M75.166,35.811c1.971,3.734 0.409,10.71 0.606,15.761c-1.682,0.602 -1.715,-3.444 -3.031,-1.213c-6.551,-11.431 -10.085,-25.881 -20.004,-33.945c-1.96,4.84 1.828,9.568 -1.818,12.729c-0.399,-2.176 1.953,-4.696 -0.606,-5.455c2.013,-2.163 0.638,-5.62 0,-8.487c2.291,0.878 1.163,-1.665 3.03,-1.212c9.66,7.503 13.888,20.451 19.398,29.096c1.535,-1.918 1.729,-7.665 3.031,-11.517c1.204,0.008 0.77,1.654 2.425,1.212c0.109,1.714 -2.28,1.412 -0.607,3.031c-0.358,1.465 -1.166,-2.033 -2.424,0" style="fill:#231f20;"/><path d="M77.59,20.051c-0.119,-1.736 -0.075,-3.309 1.819,-3.031c-1.959,4.064 4.174,8.332 -1.212,10.305c0.631,-1.042 1.488,-5.345 -0.607,-7.274" style="fill:#231f20;"/></g></svg>