<?xml version="1.0" standalone="no"?><!DOCTYPE svg PUBLIC "-//W3C//DTD SVG 1.1//EN" "http://www.w3.org/Graphics/SVG/1.1/DTD/svg11.dtd"><svg width="100%" height="100%" viewBox="0 0 188 45" version="1.1" xmlns="http://www.w3.org/2000/svg" xmlns:xlink="http://www.w3.org/1999/xlink" xml:space="preserve" style="fill-rule:evenodd;clip-rule:evenodd;stroke-linejoin:round;stroke-miterlimit:1.41421;"><g><path id="vol1_v" d="M32.383,11.711l-7.633,20.577l-4.979,0l-7.444,-20.008l4.884,-0.901l5.263,15.694l5.121,-15.362l4.788,0ZM0,22.237c0,12.375 9.388,22.284 22.284,22.284c12.944,0 22.332,-9.909 22.332,-22.284c0,-12.375 -9.388,-22.237 -22.332,-22.237c-12.896,0 -22.284,9.862 -22.284,22.237Z" style="fill:#0b7347;fill-rule:nonzero;"/><path id="vol1_o" d="M75.008,21.952c0,-3.84 -1.944,-6.922 -5.216,-6.922c-3.413,0 -5.262,2.987 -5.262,6.922c0,3.793 1.991,6.875 5.262,6.875c3.319,0 5.216,-2.987 5.216,-6.875ZM79.797,21.905c0,6.543 -4.505,10.668 -10.052,10.668c-5.453,0 -9.957,-4.078 -9.957,-10.621c0,-6.543 4.552,-10.668 10.004,-10.668c5.5,0 10.005,4.078 10.005,10.621ZM47.508,22.237c0,12.375 9.388,22.284 22.284,22.284c12.944,0 22.332,-9.909 22.332,-22.284c0,-12.375 -9.388,-22.237 -22.332,-22.237c-12.896,0 -22.284,9.862 -22.284,22.237Z" style="fill:#0b7347;fill-rule:nonzero;"/><path id="vol1_l" d="M124.223,32.194l-12.565,0l0,-20.483l4.694,0l0,16.69l7.349,0l0.522,3.793ZM95.016,22.237c0,12.375 9.388,22.284 22.285,22.284c12.943,0 22.331,-9.909 22.331,-22.284c0,-12.375 -9.388,-22.237 -22.331,-22.237c-12.897,0 -22.285,9.862 -22.285,22.237Z" style="fill:#0b7347;fill-rule:nonzero;"/><path id="vol1_1" d="M172.964,32.288l-15.078,0l0,-3.935l5.595,0l0,-12.47l-4.883,2.039l-0.522,-3.698l5.832,-2.655l3.888,0l0,16.784l4.551,0l0.617,3.935ZM142.524,22.237c0,12.375 9.388,22.284 22.285,22.284c12.943,0 22.331,-9.909 22.331,-22.284c0,-12.375 -9.388,-22.237 -22.331,-22.237c-12.897,0 -22.285,9.862 -22.285,22.237Z" style="fill:#0b7347;fill-rule:nonzero;"/></g></svg>